<mxfile host="app.diagrams.net" modified="2021-12-16T10:19:31.969Z" agent="5.0 (Windows NT 10.0; Win64; x64) AppleWebKit/537.36 (KHTML, like Gecko) Chrome/94.0.4606.81 Safari/537.36" etag="1ffer6RWSh-NJIdkEBL5" version="15.9.6" type="github">
  <diagram id="Az1n_bTcT4dknUgMWliC" name="线程生命周期">
    <mxGraphModel dx="1422" dy="762" grid="1" gridSize="10" guides="1" tooltips="1" connect="1" arrows="1" fold="1" page="1" pageScale="1" pageWidth="827" pageHeight="1169" math="0" shadow="0">
      <root>
        <mxCell id="0" />
        <mxCell id="1" parent="0" />
        <mxCell id="3rMzlO_2KwWwIVq6XhqD-1" style="edgeStyle=orthogonalEdgeStyle;rounded=0;orthogonalLoop=1;jettySize=auto;html=1;exitX=0.5;exitY=1;exitDx=0;exitDy=0;entryX=0.5;entryY=0;entryDx=0;entryDy=0;fontSize=14;" edge="1" parent="1" source="3rMzlO_2KwWwIVq6XhqD-3" target="3rMzlO_2KwWwIVq6XhqD-6">
          <mxGeometry relative="1" as="geometry" />
        </mxCell>
        <mxCell id="3rMzlO_2KwWwIVq6XhqD-2" value="start" style="edgeLabel;html=1;align=center;verticalAlign=middle;resizable=0;points=[];fontSize=14;" vertex="1" connectable="0" parent="3rMzlO_2KwWwIVq6XhqD-1">
          <mxGeometry x="-0.2667" y="3" relative="1" as="geometry">
            <mxPoint as="offset" />
          </mxGeometry>
        </mxCell>
        <mxCell id="3rMzlO_2KwWwIVq6XhqD-3" value="新生态" style="rounded=0;whiteSpace=wrap;html=1;fontSize=14;" vertex="1" parent="1">
          <mxGeometry x="320" y="120" width="120" height="60" as="geometry" />
        </mxCell>
        <mxCell id="3rMzlO_2KwWwIVq6XhqD-4" style="edgeStyle=orthogonalEdgeStyle;rounded=0;orthogonalLoop=1;jettySize=auto;html=1;exitX=0.75;exitY=1;exitDx=0;exitDy=0;entryX=0.75;entryY=0;entryDx=0;entryDy=0;fontSize=14;" edge="1" parent="1" source="3rMzlO_2KwWwIVq6XhqD-6" target="3rMzlO_2KwWwIVq6XhqD-17">
          <mxGeometry relative="1" as="geometry" />
        </mxCell>
        <mxCell id="3rMzlO_2KwWwIVq6XhqD-5" value="抢到CPU资源" style="edgeLabel;html=1;align=center;verticalAlign=middle;resizable=0;points=[];fontSize=14;" vertex="1" connectable="0" parent="3rMzlO_2KwWwIVq6XhqD-4">
          <mxGeometry x="-0.25" relative="1" as="geometry">
            <mxPoint as="offset" />
          </mxGeometry>
        </mxCell>
        <mxCell id="3rMzlO_2KwWwIVq6XhqD-6" value="就绪态" style="rounded=0;whiteSpace=wrap;html=1;fontSize=14;" vertex="1" parent="1">
          <mxGeometry x="320" y="270" width="120" height="60" as="geometry" />
        </mxCell>
        <mxCell id="3rMzlO_2KwWwIVq6XhqD-7" style="edgeStyle=orthogonalEdgeStyle;rounded=0;orthogonalLoop=1;jettySize=auto;html=1;exitX=0.25;exitY=0;exitDx=0;exitDy=0;entryX=0.25;entryY=1;entryDx=0;entryDy=0;fontSize=14;" edge="1" parent="1" source="3rMzlO_2KwWwIVq6XhqD-17" target="3rMzlO_2KwWwIVq6XhqD-6">
          <mxGeometry relative="1" as="geometry" />
        </mxCell>
        <mxCell id="3rMzlO_2KwWwIVq6XhqD-8" value="yield" style="edgeLabel;html=1;align=center;verticalAlign=middle;resizable=0;points=[];fontSize=14;" vertex="1" connectable="0" parent="3rMzlO_2KwWwIVq6XhqD-7">
          <mxGeometry x="0.3333" y="-1" relative="1" as="geometry">
            <mxPoint as="offset" />
          </mxGeometry>
        </mxCell>
        <mxCell id="3rMzlO_2KwWwIVq6XhqD-9" style="edgeStyle=orthogonalEdgeStyle;rounded=0;orthogonalLoop=1;jettySize=auto;html=1;exitX=1;exitY=0.5;exitDx=0;exitDy=0;entryX=0.5;entryY=1;entryDx=0;entryDy=0;fontSize=14;" edge="1" parent="1" source="3rMzlO_2KwWwIVq6XhqD-17" target="3rMzlO_2KwWwIVq6XhqD-21">
          <mxGeometry relative="1" as="geometry" />
        </mxCell>
        <mxCell id="3rMzlO_2KwWwIVq6XhqD-10" value="&lt;div style=&quot;font-size: 14px;&quot;&gt;&lt;span style=&quot;font-size: 14px;&quot;&gt;1.等待用户输入&lt;/span&gt;&lt;/div&gt;&lt;div style=&quot;font-size: 14px;&quot;&gt;&lt;span style=&quot;font-size: 14px;&quot;&gt;2.sleep&lt;/span&gt;&lt;/div&gt;&lt;div style=&quot;font-size: 14px;&quot;&gt;&lt;span style=&quot;font-size: 14px;&quot;&gt;3.join&lt;/span&gt;&lt;/div&gt;" style="edgeLabel;html=1;align=left;verticalAlign=middle;resizable=0;points=[];fontSize=14;" vertex="1" connectable="0" parent="3rMzlO_2KwWwIVq6XhqD-9">
          <mxGeometry x="0.0338" relative="1" as="geometry">
            <mxPoint as="offset" />
          </mxGeometry>
        </mxCell>
        <mxCell id="3rMzlO_2KwWwIVq6XhqD-11" style="edgeStyle=orthogonalEdgeStyle;rounded=0;orthogonalLoop=1;jettySize=auto;html=1;exitX=0;exitY=0.5;exitDx=0;exitDy=0;entryX=1;entryY=0.5;entryDx=0;entryDy=0;fontSize=14;" edge="1" parent="1" source="3rMzlO_2KwWwIVq6XhqD-17" target="3rMzlO_2KwWwIVq6XhqD-27">
          <mxGeometry relative="1" as="geometry" />
        </mxCell>
        <mxCell id="3rMzlO_2KwWwIVq6XhqD-12" value="wait" style="edgeLabel;html=1;align=center;verticalAlign=middle;resizable=0;points=[];fontSize=14;" vertex="1" connectable="0" parent="3rMzlO_2KwWwIVq6XhqD-11">
          <mxGeometry x="-0.2667" y="-3" relative="1" as="geometry">
            <mxPoint as="offset" />
          </mxGeometry>
        </mxCell>
        <mxCell id="3rMzlO_2KwWwIVq6XhqD-13" style="edgeStyle=orthogonalEdgeStyle;rounded=0;orthogonalLoop=1;jettySize=auto;html=1;exitX=0;exitY=0.25;exitDx=0;exitDy=0;entryX=1;entryY=0.75;entryDx=0;entryDy=0;fontSize=14;" edge="1" parent="1" source="3rMzlO_2KwWwIVq6XhqD-17" target="3rMzlO_2KwWwIVq6XhqD-24">
          <mxGeometry relative="1" as="geometry" />
        </mxCell>
        <mxCell id="3rMzlO_2KwWwIVq6XhqD-14" value="等待锁标记" style="edgeLabel;html=1;align=center;verticalAlign=middle;resizable=0;points=[];fontSize=14;" vertex="1" connectable="0" parent="3rMzlO_2KwWwIVq6XhqD-13">
          <mxGeometry x="0.2467" relative="1" as="geometry">
            <mxPoint as="offset" />
          </mxGeometry>
        </mxCell>
        <mxCell id="3rMzlO_2KwWwIVq6XhqD-15" style="edgeStyle=orthogonalEdgeStyle;rounded=0;orthogonalLoop=1;jettySize=auto;html=1;exitX=0.5;exitY=1;exitDx=0;exitDy=0;entryX=0.5;entryY=0;entryDx=0;entryDy=0;fontSize=14;" edge="1" parent="1" source="3rMzlO_2KwWwIVq6XhqD-17" target="3rMzlO_2KwWwIVq6XhqD-18">
          <mxGeometry relative="1" as="geometry" />
        </mxCell>
        <mxCell id="3rMzlO_2KwWwIVq6XhqD-16" value="&lt;div style=&quot;font-size: 14px;&quot;&gt;&lt;span style=&quot;font-size: 14px;&quot;&gt;1.线程中逻辑执行结束&lt;/span&gt;&lt;/div&gt;&lt;div style=&quot;font-size: 14px;&quot;&gt;&lt;span style=&quot;font-size: 14px;&quot;&gt;2.线程中发生未经处理的异常&lt;/span&gt;&lt;/div&gt;" style="edgeLabel;html=1;align=center;verticalAlign=middle;resizable=0;points=[];fontSize=14;" vertex="1" connectable="0" parent="3rMzlO_2KwWwIVq6XhqD-15">
          <mxGeometry x="-0.1846" y="-2" relative="1" as="geometry">
            <mxPoint as="offset" />
          </mxGeometry>
        </mxCell>
        <mxCell id="3rMzlO_2KwWwIVq6XhqD-17" value="运行态" style="rounded=0;whiteSpace=wrap;html=1;fontSize=14;" vertex="1" parent="1">
          <mxGeometry x="320" y="450" width="120" height="60" as="geometry" />
        </mxCell>
        <mxCell id="3rMzlO_2KwWwIVq6XhqD-18" value="死亡态" style="rounded=0;whiteSpace=wrap;html=1;fontSize=14;" vertex="1" parent="1">
          <mxGeometry x="320" y="640" width="120" height="60" as="geometry" />
        </mxCell>
        <mxCell id="3rMzlO_2KwWwIVq6XhqD-19" style="edgeStyle=orthogonalEdgeStyle;rounded=0;orthogonalLoop=1;jettySize=auto;html=1;exitX=0.5;exitY=0;exitDx=0;exitDy=0;entryX=1;entryY=0.5;entryDx=0;entryDy=0;fontSize=14;" edge="1" parent="1" source="3rMzlO_2KwWwIVq6XhqD-21" target="3rMzlO_2KwWwIVq6XhqD-6">
          <mxGeometry relative="1" as="geometry" />
        </mxCell>
        <mxCell id="3rMzlO_2KwWwIVq6XhqD-20" value="&lt;div style=&quot;font-size: 14px;&quot;&gt;&lt;span style=&quot;font-size: 14px;&quot;&gt;1.用户输入完成&lt;/span&gt;&lt;/div&gt;&lt;div style=&quot;font-size: 14px;&quot;&gt;&lt;span style=&quot;font-size: 14px;&quot;&gt;2.等待休眠时间结束&lt;/span&gt;&lt;/div&gt;&lt;div style=&quot;font-size: 14px;&quot;&gt;&lt;span style=&quot;font-size: 14px;&quot;&gt;3.等待合并线成结束&lt;/span&gt;&lt;/div&gt;" style="edgeLabel;html=1;align=left;verticalAlign=middle;resizable=0;points=[];fontSize=14;" vertex="1" connectable="0" parent="3rMzlO_2KwWwIVq6XhqD-19">
          <mxGeometry x="0.3254" y="1" relative="1" as="geometry">
            <mxPoint as="offset" />
          </mxGeometry>
        </mxCell>
        <mxCell id="3rMzlO_2KwWwIVq6XhqD-21" value="阻塞态" style="rounded=0;whiteSpace=wrap;html=1;fontSize=14;" vertex="1" parent="1">
          <mxGeometry x="650" y="365" width="120" height="60" as="geometry" />
        </mxCell>
        <mxCell id="3rMzlO_2KwWwIVq6XhqD-22" style="edgeStyle=orthogonalEdgeStyle;rounded=0;orthogonalLoop=1;jettySize=auto;html=1;exitX=1;exitY=0.5;exitDx=0;exitDy=0;entryX=0;entryY=0.5;entryDx=0;entryDy=0;fontSize=14;" edge="1" parent="1" source="3rMzlO_2KwWwIVq6XhqD-24" target="3rMzlO_2KwWwIVq6XhqD-6">
          <mxGeometry relative="1" as="geometry" />
        </mxCell>
        <mxCell id="3rMzlO_2KwWwIVq6XhqD-23" value="获取到锁标记" style="edgeLabel;html=1;align=center;verticalAlign=middle;resizable=0;points=[];fontSize=14;" vertex="1" connectable="0" parent="3rMzlO_2KwWwIVq6XhqD-22">
          <mxGeometry x="0.1733" y="-2" relative="1" as="geometry">
            <mxPoint as="offset" />
          </mxGeometry>
        </mxCell>
        <mxCell id="3rMzlO_2KwWwIVq6XhqD-24" value="锁池" style="rounded=0;whiteSpace=wrap;html=1;fontSize=14;" vertex="1" parent="1">
          <mxGeometry x="50" y="270" width="120" height="60" as="geometry" />
        </mxCell>
        <mxCell id="3rMzlO_2KwWwIVq6XhqD-25" style="edgeStyle=orthogonalEdgeStyle;rounded=0;orthogonalLoop=1;jettySize=auto;html=1;exitX=0.5;exitY=0;exitDx=0;exitDy=0;entryX=0.5;entryY=1;entryDx=0;entryDy=0;fontSize=14;" edge="1" parent="1" source="3rMzlO_2KwWwIVq6XhqD-27" target="3rMzlO_2KwWwIVq6XhqD-24">
          <mxGeometry relative="1" as="geometry" />
        </mxCell>
        <mxCell id="3rMzlO_2KwWwIVq6XhqD-26" value="notify/notifyAll" style="edgeLabel;html=1;align=center;verticalAlign=middle;resizable=0;points=[];fontSize=14;" vertex="1" connectable="0" parent="3rMzlO_2KwWwIVq6XhqD-25">
          <mxGeometry x="0.1833" y="2" relative="1" as="geometry">
            <mxPoint as="offset" />
          </mxGeometry>
        </mxCell>
        <mxCell id="3rMzlO_2KwWwIVq6XhqD-27" value="等待队列" style="rounded=0;whiteSpace=wrap;html=1;fontSize=14;" vertex="1" parent="1">
          <mxGeometry x="50" y="450" width="120" height="60" as="geometry" />
        </mxCell>
      </root>
    </mxGraphModel>
  </diagram>
</mxfile>
